<?xml version="1.0" standalone="no"?>
<!DOCTYPE svg PUBLIC "-//W3C//DTD SVG 20010904//EN"
 "http://www.w3.org/TR/2001/REC-SVG-20010904/DTD/svg10.dtd">
<svg version="1.0" xmlns="http://www.w3.org/2000/svg"
 width="920.000000pt" height="543.000000pt" viewBox="0 0 920.000000 543.000000"
 preserveAspectRatio="xMidYMid meet">

<g transform="translate(0.000000,543.000000) scale(0.100000,-0.100000)"
fill="#000000" stroke="none">
<path d="M2510 5050 c-623 -107 -1478 -411 -1922 -683 l-67 -41 5 -46 c26
-233 111 -448 262 -660 92 -130 308 -345 464 -461 195 -145 449 -296 646 -385
45 -20 82 -40 82 -43 -1 -3 -76 -43 -168 -88 -618 -302 -1049 -712 -1215
-1155 -30 -78 -64 -232 -68 -303 -3 -50 -3 -50 46 -83 167 -110 640 -319 1037
-457 296 -104 867 -244 995 -245 l32 0 3 778 c4 776 4 777 26 852 32 104 99
241 162 329 59 83 37 79 210 41 241 -53 558 -101 830 -125 243 -23 780 -31
1021 -16 362 22 673 62 989 128 96 20 187 38 201 40 21 4 32 -3 56 -34 51 -64
120 -184 152 -264 60 -153 61 -167 61 -985 l0 -744 31 0 c95 0 533 99 814 185
386 117 943 351 1197 503 l79 46 -6 56 c-28 254 -137 501 -322 730 -72 89
-250 263 -348 342 -179 142 -438 300 -668 408 -64 30 -117 58 -117 61 0 3 42
25 93 48 304 139 640 361 854 565 300 286 466 591 507 931 l6 50 -58 36 c-245
156 -821 397 -1262 529 -241 72 -573 149 -757 174 l-42 6 -3 -777 c-3 -773 -3
-778 -26 -858 -28 -101 -95 -239 -162 -333 -42 -60 -56 -73 -73 -69 -592 131
-1024 178 -1622 178 -170 -1 -321 -3 -335 -5 -14 -2 -74 -7 -135 -11 -318 -19
-734 -80 -1092 -162 -43 -10 -177 215 -230 384 l-28 88 -3 783 c-2 604 -6 782
-15 781 -7 0 -59 -9 -117 -19z m2265 -2011 c250 -22 512 -85 723 -174 108 -46
252 -123 252 -136 0 -13 -279 -146 -375 -179 -138 -48 -299 -87 -457 -111
-192 -30 -616 -33 -808 -6 -161 23 -319 58 -456 103 -107 35 -414 178 -414
192 0 11 127 81 225 125 218 97 488 164 750 186 137 12 426 12 560 0z"/>
</g>
</svg>
